<svg width="293" height="267" viewBox="0 0 293 267" fill="none" xmlns="http://www.w3.org/2000/svg">
<path d="M204.466 266.5H137.865L171.378 208.384L188.486 178.715L171.594 149.046L137.931 89.5L189.252 0.5H257.252H291.252L239.931 89.5L188.61 178.5H291.61L240.865 266.5H204.466Z" fill="black"/>
<path d="M35.8655 266.5H0.865479L51.61 178.5L102.931 89.5H1.29193L52.2523 0.5H87.0206H154.252L120.422 59.1672L102.931 89.5L120.703 119.377L154.364 178.5L103.865 266.5H35.8655Z" fill="black"/>
<path d="M188.61 178.5H291.61L240.865 266.5H204.466H137.865L171.378 208.384L188.486 178.715M188.61 178.5L239.931 89.5L291.252 0.5H257.252H189.252L137.931 89.5L171.594 149.046L188.486 178.715M188.61 178.5L188.486 178.715M103.865 266.5H35.8655H0.865479L51.61 178.5L120.422 59.1672L154.252 0.5H87.0206H52.2523L1.29193 89.5H102.931L120.703 119.377L154.364 178.5L103.865 266.5Z" stroke="black"/>
</svg>
